<?xml version="1.0" encoding="utf-8"?>
<!-- Generator: Adobe Illustrator 16.0.0, SVG Export Plug-In . SVG Version: 6.00 Build 0)  -->
<!DOCTYPE svg PUBLIC "-//W3C//DTD SVG 1.1//EN" "http://www.w3.org/Graphics/SVG/1.1/DTD/svg11.dtd">
<svg version="1.1" id="Layer_1" xmlns="http://www.w3.org/2000/svg" xmlns:xlink="http://www.w3.org/1999/xlink" x="0px" y="0px"
	 width="207.982px" height="246.41px" viewBox="0 0 207.982 246.41" enable-background="new 0 0 207.982 246.41"
	 xml:space="preserve">
<path fill="#034EA2" d="M104.81,128.664H46.911c-1.229,5.51-1.494,9.041-1.507,9.113l-0.01,0.182
	c-0.969,11.092,4.516,32.039,23.334,41.008c18.306,8.727,29.457,15.648,36.082,20.462V128.664z"/>
<g>
	<g>
		<defs>
			<path id="SVGID_1_" d="M46.912,128.664c-1.229,5.51-1.494,9.041-1.508,9.113l-0.01,0.182
				c-0.969,11.092,4.516,32.037,23.335,41.008c18.306,8.728,29.457,15.648,36.081,20.462v-70.765H46.912z"/>
		</defs>
		<clipPath id="SVGID_2_">
			<use xlink:href="#SVGID_1_"  overflow="visible"/>
		</clipPath>
		<path clip-path="url(#SVGID_2_)" fill="#FFFFFF" d="M81.091,208.507h-6.199c0.202-1.082,0.406-2.15,0.58-3.227
			c0.108-0.646,0.211-1.289,0.221-1.936c0.092-2.768,0.176-5.529,0.2-8.291c0.004-1.557-0.099-3.109-0.188-4.657
			c-0.102-1.591-0.261-3.183-0.387-4.771c-0.103-1.301-0.179-2.599-0.305-3.894c-0.14-1.384-0.316-2.769-0.477-4.155
			c-0.136-1.211-0.258-2.428-0.407-3.633c-0.17-1.363-0.374-2.729-0.56-4.085c-0.106-0.844-0.231-1.688-0.344-2.557h9.484
			c-0.092,0.608-0.17,1.206-0.248,1.798c-0.152,1.081-0.318,2.15-0.455,3.227c-0.17,1.199-0.34,2.398-0.476,3.61
			c-0.119,0.978-0.207,1.962-0.315,2.956c-0.126,1.141-0.262,2.29-0.374,3.434c-0.085,0.836-0.146,1.686-0.214,2.523
			c-0.136,1.708-0.271,3.412-0.387,5.115c-0.051,0.65-0.088,1.312-0.102,1.961c-0.044,2.726-0.156,5.441-0.078,8.158
			C80.141,202.905,80.334,205.728,81.091,208.507"/>
	</g>
	<g>
		<defs>
			<path id="SVGID_3_" d="M46.912,128.664c-1.229,5.51-1.494,9.041-1.508,9.113l-0.01,0.182
				c-0.969,11.092,4.516,32.037,23.335,41.008c18.306,8.728,29.457,15.648,36.081,20.462v-70.765H46.912z"/>
		</defs>
		<clipPath id="SVGID_4_">
			<use xlink:href="#SVGID_3_"  overflow="visible"/>
		</clipPath>
		<path clip-path="url(#SVGID_4_)" fill="#FFFFFF" d="M70.103,139.167c1.766,1.305,3.644,2.561,5.062,4.465
			c0.73-1.418,1.196-2.855,1.409-4.354c0.218-1.489,0.306-3,0.459-4.499c1.389,1.266,2.554,2.75,3.426,4.424
			c0.853,1.664,1.667,3.354,2.574,5.033c-0.085-1.383-0.163-2.759-0.255-4.285c1.722,2.436,3.192,4.821,3.864,7.623
			c0.371,1.557,0.492,3.131,0.356,4.709c-0.189,2.303-1.005,4.399-2.479,6.207c-0.088,0.116-0.271,0.204-0.417,0.204
			c-4.211,0.013-8.433,0.017-12.643,0c-0.218,0-0.499-0.153-0.651-0.325c-1.535-1.768-2.146-3.834-1.878-6.137
			c0.196-1.688,0.899-3.221,1.938-4.545c0.577-0.73,0.608-1.516,0.472-2.297C70.973,143.312,70.521,141.251,70.103,139.167
			 M84.579,146.986c-0.486,0.928-0.934,1.771-1.426,2.676c-1.426-3.502-2.795-6.938-4.608-10.084
			c-0.485,1.455-0.937,2.902-1.477,4.328c-0.479,1.27-1.352,2.241-2.506,2.971c-0.307-1.051-0.602-2.069-1.504-2.84
			c0.044,0.543,0.102,1.024,0.129,1.506c0.073,1.008,0.051,1.986-0.596,2.881c-0.491,0.695-0.949,1.426-1.3,2.207
			c-0.907,1.998-0.805,3.961,0.384,5.828c0.103,0.152,0.288,0.356,0.451,0.369c0.611,0.039,1.23,0.021,1.919,0.021
			c-0.729-1.267-0.865-2.563-0.808-3.915c0.044-1.053,0.781-3.243,1.212-3.604c0.095,0.695,0.19,1.426,0.292,2.155h0.142
			c0.925-2.065,1.705-4.205,3.152-6.103c0.204,1.791,0.509,3.426,1.45,4.75c0.706-0.735,1.409-1.461,2.104-2.187
			c-0.026,0.662-0.203,1.243-0.248,1.828c-0.067,0.827-0.159,1.659,0.463,2.417c0.686,0.826,0.997,1.85,0.883,2.949
			c-0.068,0.574-0.238,1.119-0.367,1.707c0.278,0,0.601,0.012,0.924-0.01c0.122-0.012,0.281-0.098,0.349-0.198
			c0.907-1.394,1.478-2.921,1.553-4.577c0.044-0.975,0-1.96-0.103-2.921C84.976,148.421,84.749,147.742,84.579,146.986"/>
	</g>
	<g>
		<defs>
			<path id="SVGID_5_" d="M46.912,128.664c-1.229,5.51-1.494,9.041-1.508,9.113l-0.01,0.182
				c-0.969,11.092,4.516,32.037,23.335,41.008c18.306,8.728,29.457,15.648,36.081,20.462v-70.765H46.912z"/>
		</defs>
		<clipPath id="SVGID_6_">
			<use xlink:href="#SVGID_5_"  overflow="visible"/>
		</clipPath>
		<path clip-path="url(#SVGID_6_)" fill="#FFFFFF" d="M67.736,162.277h20.51c-0.602,0.486-1.104,0.895-1.62,1.295
			c-1.232,0.945-2.472,1.896-3.711,2.836c-0.129,0.096-0.315,0.168-0.476,0.176c-2.988,0-5.977,0.021-8.954-0.028
			c-0.384-0.013-0.784-0.386-1.142-0.646c-1.467-1.104-2.902-2.231-4.359-3.361C67.917,162.494,67.862,162.414,67.736,162.277"/>
	</g>
	<g>
		<defs>
			<path id="SVGID_7_" d="M46.912,128.664c-1.229,5.51-1.494,9.041-1.508,9.113l-0.01,0.182
				c-0.969,11.092,4.516,32.037,23.335,41.008c18.306,8.728,29.457,15.648,36.081,20.462v-70.765H46.912z"/>
		</defs>
		<clipPath id="SVGID_8_">
			<use xlink:href="#SVGID_7_"  overflow="visible"/>
		</clipPath>
		<path clip-path="url(#SVGID_8_)" fill="#FFFFFF" d="M77.981,161.563h-11.46c-0.696,0-0.947-0.237-0.951-0.922
			c-0.007-0.94,0.221-1.239,0.968-1.239H89.4c0.697,0,0.975,0.346,0.962,1.159c0,0.747-0.231,1.002-0.927,1.002H77.981z"/>
	</g>
	<g>
		<defs>
			<path id="SVGID_9_" d="M46.912,128.664c-1.229,5.51-1.494,9.041-1.508,9.113l-0.01,0.182
				c-0.969,11.092,4.516,32.037,23.335,41.008c18.306,8.728,29.457,15.648,36.081,20.462v-70.765H46.912z"/>
		</defs>
		<clipPath id="SVGID_10_">
			<use xlink:href="#SVGID_9_"  overflow="visible"/>
		</clipPath>
		<path clip-path="url(#SVGID_10_)" fill="#FFFFFF" d="M77.917,213.148c-1.097,0-2.189,0.007-3.294,0
			c-0.604-0.006-0.876-0.277-0.886-0.895v-2.116c0.01-0.628,0.248-0.917,0.869-0.917c2.248-0.012,4.496-0.012,6.736,0
			c0.51,0,0.85,0.352,0.859,0.861c0.01,0.739,0.01,1.477-0.01,2.217c-0.013,0.589-0.285,0.844-0.883,0.85
			C80.188,213.155,79.054,213.148,77.917,213.148"/>
	</g>
	<g>
		<defs>
			<path id="SVGID_11_" d="M46.912,128.664c-1.229,5.51-1.494,9.041-1.508,9.113l-0.01,0.182
				c-0.969,11.092,4.516,32.037,23.335,41.008c18.306,8.728,29.457,15.648,36.081,20.462v-70.765H46.912z"/>
		</defs>
		<clipPath id="SVGID_12_">
			<use xlink:href="#SVGID_11_"  overflow="visible"/>
		</clipPath>
		<path clip-path="url(#SVGID_12_)" fill="#FFFFFF" d="M77.967,213.837c0.771,0,1.546,0.019,2.31,0
			c0.44-0.012,0.557,0.209,0.557,0.606c0,0.38-0.126,0.582-0.533,0.57h-4.669c-0.441,0.012-0.516-0.255-0.516-0.595
			c0.013-0.35,0.126-0.594,0.543-0.582C76.429,213.856,77.2,213.837,77.967,213.837"/>
	</g>
</g>
<path fill="#991F23" d="M49.308,119.872c-1.054,3.26-1.827,6.231-2.397,8.792h57.899V57.891h-0.004
	c-7.528,5.122-16.041,7.712-25.346,7.712c-10.255,0-19.477-3.162-26.359-6.519l-6.747,10.17
	C54.279,86.826,52.33,110.488,49.308,119.872"/>
<path fill="#034EA2" d="M104.81,128.664h57.901c-0.566-2.562-1.348-5.535-2.4-8.792c-3.022-9.383-4.969-33.046,2.954-50.618
	l-6.75-10.17c-6.884,3.352-16.103,6.52-26.357,6.52c-9.314,0-17.82-2.591-25.348-7.713V128.664z"/>
<path fill="#991F23" d="M164.212,137.75c-0.007-0.045-0.268-3.576-1.501-9.086h-57.9v70.765
	c6.617-4.812,17.765-11.734,36.091-20.462c18.814-8.969,24.289-29.916,23.328-41.069L164.212,137.75z"/>
<path fill="#EEA624" d="M170.478,116.591c-2.581-8-4.533-33.506,5.25-47.869L159.85,44.806c0,0-30.609,22.776-54.219,0.017
	c0,0-0.588-0.549-0.821-1.114c-0.231,0.565-0.815,1.114-0.815,1.114c-23.626,22.759-54.228-0.017-54.228-0.017L33.89,68.723
	c9.789,14.363,7.837,39.869,5.256,47.869c-3.854,11.961-4.388,20.451-4.388,20.451c-1.301,15.004,6.118,40.469,29.372,51.556
	c32.351,15.419,40.68,24.677,40.68,24.677s8.325-9.258,40.68-24.677c23.256-11.087,30.669-36.552,29.371-51.556
	C174.861,137.042,174.334,128.552,170.478,116.591 M143.194,183.771c-21.898,10.439-33.124,18.145-38.384,22.359
	c-5.264-4.215-16.486-11.92-38.388-22.359C45.18,173.652,38.986,150.013,40.079,137.5l0.007-0.127
	c0.004-0.072,0.564-8.062,4.144-19.143c2.648-8.212,4.842-32.95-4.024-49.372l11.121-16.753c5.793,3.318,16.285,8.162,28.136,8.162
	c9.475,0,17.987-3.034,25.349-9.038c7.341,5.994,15.854,9.038,25.348,9.038c11.851,0,22.344-4.844,28.14-8.162l11.114,16.753
	c-8.855,16.422-6.666,41.16-4.017,49.372c3.575,11.081,4.135,19.07,4.142,19.146l0.01,0.123
	C170.634,150.013,164.444,173.652,143.194,183.771"/>
<path fill="#A7A9AC" d="M104.81,201.144l-0.815-0.596c-5.919-4.295-16.944-11.312-35.875-20.338
	c-19.443-9.265-25.11-30.905-24.109-42.362l0.015-0.179c0.003-0.071,0.587-7.789,3.959-18.234c2.832-8.778,4.89-32.338-2.903-49.61
	l-0.309-0.696l7.847-11.833l1.093,0.538c8.693,4.232,17.359,6.377,25.749,6.377c9.013,0,17.274-2.506,24.568-7.471l0.781-0.531
	l0.776,0.531c7.287,4.965,15.553,7.471,24.571,7.471c8.387,0,17.059-2.145,25.752-6.377l1.097-0.538l7.845,11.833l-0.316,0.696
	c-7.789,17.272-5.735,40.832-2.9,49.61c3.362,10.445,3.956,18.15,3.964,18.229l0.01,0.129c0.998,11.479-4.662,33.153-24.109,42.418
	c-18.93,9.026-29.959,16.043-35.868,20.338L104.81,201.144z M47.93,69.39c7.47,17.275,6.063,40.483,2.702,50.907
	c-3.26,10.09-3.831,17.51-3.841,17.578l-0.013,0.199c-0.934,10.729,4.363,30.965,22.543,39.631
	c14.873,7.09,26.802,13.82,35.488,20.01c8.682-6.188,20.617-12.92,35.49-20.01c18.177-8.666,23.471-28.947,22.536-39.683
	l-0.013-0.169c0-0.075-0.571-7.462-3.83-17.557c-3.369-10.424-4.771-33.632,2.699-50.907l-5.671-8.533
	c-8.703,4.076-17.409,6.134-25.864,6.134c-9.27,0-17.786-2.496-25.352-7.431c-7.569,4.935-16.096,7.431-25.346,7.431
	c-8.458,0-17.158-2.058-25.874-6.134L47.93,69.39z"/>
<path fill="#EEA624" d="M138.613,226.828c4.258,2.812,12.775,2.185,17.841-1.244c5.046-3.431,13.568-7.479,18.363-7.479
	s7.986,4.669,7.986,4.669s-3.191-0.621-7.722,2.81c0,0,7.722,7.479,7.722,13.406c0,0-3.191-4.676-7.986-4.676
	s-13.317,4.059-18.363,7.482c-5.065,3.43-13.583,4.051-17.841,1.244V226.828z"/>
<path fill="#991F23" d="M138.613,243.041c0,0-0.801-8.183,9.046-8.263c11.453-0.085,13.841-0.774,13.582-4.207v-13.715l-24.618,3.74
	L138.613,243.041z"/>
<path fill="#EEA624" d="M71.006,226.828c-4.255,2.812-12.777,2.185-17.837-1.244c-5.06-3.431-13.571-7.479-18.363-7.479
	c-4.795,0-7.986,4.669-7.986,4.669s3.191-0.621,7.718,2.81c0,0-7.718,7.479-7.718,13.406c0,0,3.191-4.676,7.986-4.676
	c4.792,0,13.304,4.059,18.363,7.482c5.06,3.43,13.582,4.051,17.837,1.244V226.828z"/>
<path fill="#991F23" d="M71.006,243.041c0,0,1.06-8.572-9.049-8.263c-11.437,0.351-13.848-0.774-13.576-4.207v-13.715L73,220.596
	L71.006,243.041z"/>
<path fill="#EEA624" d="M137.812,212.486c-13.572,6.237-26.078,5.305-33.002,5.305c-6.92,0-19.427,0.934-33.01-5.305
	c-13.571-6.23-21.558-4.669-23.419,0.312v17.772c1.861-4.987,9.848-6.54,23.419-0.31c13.583,6.238,26.09,5.297,33.01,5.297
	c6.924,0,19.43,0.941,33.002-5.297c13.576-6.23,21.562-4.68,23.429,0.31v-17.772C159.374,207.817,151.388,206.253,137.812,212.486"
	/>
<path fill="#FFFFFF" d="M127.686,160.234c-0.093-0.221-0.188-0.402-0.231-0.605c-0.136-0.51-0.251-1.017-0.353-1.532
	c-0.034-0.204,0-0.421,0-0.624c-0.004-0.191-0.021-0.385-0.011-0.59c0.007-0.254-0.058-0.52,0.146-0.756
	c0.051-0.041,0.068-0.104,0.068-0.162c0.013-0.207,0.022-0.416,0.013-0.633c-0.007-0.14-0.059-0.248-0.255-0.293
	c-0.187-0.037-0.347-0.192-0.522-0.277c-0.085-0.057-0.187-0.096-0.274-0.119c-0.286-0.044-0.578-0.078-0.866-0.102
	c-0.082-0.006-0.177,0.033-0.245,0.084c-0.112,0.092-0.502,0.16-0.646,0.108c-0.044-0.017-0.108-0.007-0.146,0.009
	c-0.16,0.061-0.319,0.133-0.465,0.195c-0.068,0.027-0.112,0.068-0.17,0.102c-0.044,0.035-0.103,0.092-0.137,0.078
	c-0.151-0.043-0.187,0.068-0.237,0.164c-0.033,0.08-0.074,0.148-0.125,0.209c-0.021,0.034-0.078,0.068-0.106,0.059
	c-0.125-0.065-0.176,0.018-0.261,0.091c-0.262,0.237-0.584,0.267-0.924,0.243c-0.088-0.006-0.18,0.021-0.258,0.051
	c-0.187,0.074-0.34,0.062-0.455-0.068c-0.103-0.129-0.088-0.26,0.014-0.408c0.102-0.162,0.18-0.332,0.282-0.502
	c0.034-0.041,0.102-0.117,0.136-0.107c0.135,0.046,0.193-0.057,0.281-0.112c0.278-0.182,0.578-0.271,0.917-0.192
	c0.051,0.012,0.126,0.033,0.149,0.012c0.17-0.17,0.288,0,0.429,0.056c0.013,0.007,0.04,0.046,0.04,0.046
	c0.074,0.199,0.187,0.238,0.33,0.137c0.264-0.183,0.512-0.361,0.764-0.549c0.068-0.041,0.139-0.062,0.214-0.084
	c0.339-0.113,0.702-0.188,1.052-0.205c0.059,0,0.103,0.012,0.194,0.027c-0.092-0.22-0.17-0.412-0.272-0.6
	c-0.227-0.43-0.488-0.854-0.702-1.291c-0.112-0.225-0.193-0.473-0.237-0.713c-0.034-0.35-0.194-0.6-0.486-0.78
	c-0.271-0.163-0.543-0.3-0.849-0.356c-0.092-0.017-0.2,0-0.295,0.018c-0.229,0.029-0.452,0.074-0.68,0.103
	c-0.041,0.011-0.092-0.017-0.126-0.034c0.018-0.043,0.018-0.119,0.064-0.136c0.096-0.067,0.204-0.136,0.323-0.157
	c0.315-0.062,0.631-0.137,0.943-0.132c0.228,0,0.452,0.126,0.672,0.194c0.059,0.018,0.144,0.059,0.178,0.039
	c0.034-0.029,0.051-0.119,0.051-0.184c0.024-0.354-0.058-0.718-0.146-1.062c-0.014-0.046-0.03-0.093-0.058-0.153
	c-0.329,0.492-0.805,0.461-1.28,0.383c-0.513-0.095-0.767-0.479-0.91-0.955c-0.044-0.117,0.008-0.184,0.119-0.25
	c0.737-0.408,1.641-0.021,1.936,0.59c0.01,0.018,0.023,0.029,0.058,0.057c0.103-0.124,0.18-0.072,0.238,0.029
	c0.119,0.23,0.258,0.463,0.326,0.707c0.101,0.35,0.125,0.719,0.217,1.059c0.112,0.402,0.241,0.803,0.418,1.176
	c0.247,0.527,0.553,1.031,0.839,1.545c0.021,0.034,0.043,0.08,0.077,0.104c0.418,0.221,0.635,0.662,1.036,0.917
	c0.095,0.062,0.152,0.209,0.245,0.351c0.032-0.096,0.054-0.146,0.078-0.197c0.017-0.057,0.01-0.119,0.044-0.152
	c0.328-0.368,0.268-0.854,0.406-1.275c0.068-0.207,0.093-0.428,0.119-0.648c0.051-0.377-0.026-0.695-0.39-0.904
	c-0.089-0.045-0.163-0.118-0.238-0.193c-0.026-0.025-0.044-0.084-0.054-0.136c0.044-0.01,0.112-0.043,0.146-0.026
	c0.196,0.096,0.397,0.196,0.587,0.312c0.212,0.123,0.285,0.104,0.289-0.131c0.014-0.677,0.018-1.358-0.004-2.038
	c-0.013-0.191-0.073-0.396-0.159-0.568c-0.384-0.892-0.906-1.697-1.64-2.328c-0.489-0.4-0.839-0.895-1.264-1.356
	c-0.203-0.229-0.435-0.296-0.719-0.25c-0.426,0.071-0.825,0.06-1.233-0.099c-0.52-0.174-1.046-0.31-1.606-0.287
	c-0.472,0.018-0.821,0.254-1.11,0.611c-0.281,0.338-0.4,0.725-0.448,1.145c-0.003,0.066-0.017,0.133-0.051,0.187
	c-0.078,0.142,0,0.197,0.108,0.243c0.027,0.012,0.041,0.021,0.062,0.029c0.669,0.201,0.863,0.723,0.863,1.316
	c0,0.407-0.085,0.793-0.252,1.166c-0.089,0.215-0.19,0.26-0.384,0.123c-0.544-0.361-0.906-0.859-1.077-1.478
	c-0.085-0.331,0.068-0.62,0.238-0.882c0.013-0.021,0.03-0.038,0.047-0.057c0.191-0.17,0.248-0.345,0.214-0.629
	c-0.044-0.259,0.041-0.548,0.113-0.812c0.058-0.217,0.159-0.422,0.285-0.612c0.071-0.13,0.207-0.222,0.315-0.339
	c0.034-0.034,0.058-0.09,0.092-0.124c-0.058-0.034-0.092-0.067-0.143-0.075c-0.126-0.018-0.248-0.01-0.381-0.018
	c-0.248-0.01-0.496,0.008-0.747-0.026c-0.495-0.08-0.987-0.165-1.504-0.085c-0.017,0.005-0.044,0.01-0.067,0.005
	c-0.078-0.005-0.238-0.022-0.238-0.051c-0.023-0.138,0.113-0.103,0.193-0.138c0.137-0.051,0.259-0.102,0.4-0.141
	c0.265-0.084,0.537-0.033,0.815,0.006c0.265,0.033,0.533,0.067,0.788-0.045c0.033-0.011,0.077-0.007,0.118-0.011
	c0.463-0.019,0.938-0.028,1.413-0.052c0.391-0.018,0.765,0.078,1.145,0.175c0.55,0.165,1.131,0.222,1.705,0.183
	c0.207-0.018,0.274-0.127,0.247-0.334c-0.067-0.494-0.169-0.974-0.356-1.445c-0.143-0.35-0.367-0.645-0.594-0.938
	c-0.347-0.425-0.775-0.736-1.212-1.045c-0.157-0.122-0.307-0.258-0.452-0.398c-0.024-0.027-0.024-0.097-0.034-0.143
	c0.044,0.008,0.092-0.01,0.125,0.008c0.527,0.264,1.063,0.514,1.563,0.803c0.23,0.142,0.417,0.352,0.613,0.549
	c0.551,0.543,0.85,1.222,1.121,1.93c0.018,0.051,0.051,0.098,0.085,0.148c0.007,0,0.023-0.004,0.034-0.004
	c0-0.056,0.013-0.1,0.013-0.156c0.021-0.77,0.292-1.467,0.774-2.071c0.357-0.44,0.758-0.851,1.128-1.272
	c0.054-0.057,0.095-0.119,0.163-0.205c-0.265,0.053-0.452-0.039-0.584-0.235c-0.136-0.177-0.275-0.356-0.35-0.562
	c-0.316-0.91-0.044-1.715,0.532-2.438c0.078-0.114,0.19-0.114,0.282-0.019c0.214,0.244,0.418,0.494,0.509,0.81
	c0.078,0.237,0.17,0.466,0.204,0.708c0.059,0.406,0.01,0.814-0.204,1.188c-0.023,0.039-0.033,0.073-0.044,0.125
	c-0.014,0,0,0.012,0.011,0.051c0.092-0.086,0.18-0.142,0.247-0.227c0.33-0.436,0.659-0.883,0.976-1.324
	c0.023-0.045,0-0.131-0.034-0.187c-0.075-0.147-0.194-0.289-0.262-0.438c-0.214-0.463-0.203-0.933,0.014-1.396
	c0.373-0.781,0.979-1.324,1.752-1.698c0.17-0.078,0.255-0.039,0.329,0.131c0.188,0.504,0.282,1.016,0.238,1.545
	c-0.034,0.282-0.096,0.565-0.159,0.842c-0.157,0.688-0.826,1.135-1.464,1.156c-0.144,0.006-0.244,0.066-0.302,0.219
	c-0.072,0.199-0.197,0.388-0.292,0.572c-0.034,0.092-0.082,0.176-0.082,0.289c0.082-0.072,0.177-0.141,0.251-0.224
	c0.181-0.205,0.407-0.313,0.655-0.388c0.703-0.221,1.383-0.131,2.037,0.203c0.126,0.062,0.129,0.147,0.068,0.254
	c-0.407,0.617-0.985,1.002-1.698,1.15c-0.499,0.09-0.957-0.007-1.368-0.312c-0.115-0.09-0.183-0.184-0.108-0.34
	c0.017-0.025,0.007-0.066-0.018-0.11c-0.057,0.067-0.136,0.141-0.192,0.214c-0.426,0.516-0.87,1.018-1.258,1.552
	c-0.309,0.446-0.587,0.933-0.814,1.437c-0.19,0.42-0.18,0.906-0.139,1.375c0.044,0.381,0.085,0.771,0.187,1.148
	c0.112,0.488,0.441,0.838,0.801,1.16c0.319,0.301,0.659,0.561,0.976,0.866c0.417,0.414,0.736,0.896,1.019,1.409
	c0.034,0.051,0.067,0.102,0.129,0.187c0.034-0.09,0.074-0.146,0.084-0.204c0.153-0.509,0.32-1.018,0.629-1.453
	c0.187-0.267,0.125-0.57,0.133-0.854c0.02-0.248-0.014-0.492-0.133-0.729c-0.051-0.106-0.062-0.244-0.085-0.379
	c0-0.021,0.023-0.091,0.047-0.091c0.034-0.006,0.089,0.017,0.112,0.04c0.153,0.249,0.316,0.492,0.452,0.734
	c0.102,0.193,0.183,0.228,0.339,0.074c0.286-0.271,0.557-0.556,0.849-0.826c0.15-0.147,0.319-0.276,0.489-0.407
	c0.316-0.228,0.477-0.572,0.571-0.931c0.109-0.364,0.176-0.738,0.244-1.106c0.017-0.099,0-0.199,0-0.335
	c-0.21,0.301-0.492,0.232-0.747,0.204c-0.302-0.027-0.523-0.173-0.727-0.367c-0.441-0.407-0.563-0.935-0.563-1.506
	c0-0.142,0.088-0.226,0.248-0.226c0.452,0.008,0.849,0.158,1.222,0.416c0.323,0.229,0.477,0.557,0.544,0.941h0.04
	c0.021-0.136,0.038-0.255,0.051-0.386c0.056-0.646,0.14-1.29,0.316-1.918c0.024-0.085,0.024-0.183,0.058-0.251
	c0.011-0.057,0.068-0.077,0.103-0.118c0.01,0.046,0.054,0.085,0.054,0.126c-0.02,0.289-0.054,0.582-0.078,0.876
	c-0.01,0.144-0.023,0.278-0.034,0.425c-0.058,0.669-0.044,1.34,0.011,2.004c0.017,0.198,0.058,0.396,0.082,0.6
	c0,0.223,0,0.453-0.034,0.678c-0.024,0.184,0.034,0.263,0.213,0.217c0.466-0.107,0.941-0.197,1.393-0.361
	c0.417-0.151,0.832-0.336,1.198-0.586c0.562-0.388,0.965-0.908,1.206-1.559c0.221-0.641,0.251-1.279,0.187-1.932
	c-0.037-0.355-0.037-0.344-0.4-0.44c-0.516-0.13-0.89-0.44-1.06-0.956c-0.225-0.763-0.196-1.523,0.092-2.275
	c0.061-0.142,0.152-0.186,0.315-0.106c0.218,0.106,0.426,0.228,0.608,0.373c0.479,0.386,0.876,0.853,1.069,1.46
	c0.136,0.454,0.021,0.873-0.255,1.247c-0.133,0.163-0.2,0.323-0.143,0.543c0.17,0.587,0.159,1.198,0.119,1.799
	c-0.034,0.413-0.197,0.804-0.392,1.172c-0.339,0.638-0.79,1.171-1.348,1.618c-0.509,0.4-1.062,0.674-1.714,0.725
	c-0.944,0.078-1.668,0.531-2.269,1.239c-0.554,0.651-1.062,1.335-1.512,2.072c-0.362,0.604-0.584,1.267-0.686,1.969
	c-0.078,0.535-0.146,1.075-0.213,1.613c-0.059,0.407-0.079,0.813-0.16,1.21c-0.062,0.371-0.17,0.719-0.272,1.074
	c-0.044,0.178-0.104,0.357-0.155,0.531c0,0.028-0.024,0.059-0.015,0.074c0.103,0.176,0.041,0.323-0.037,0.481
	c-0.013,0.028,0,0.09-0.023,0.106c-0.265,0.203-0.176,0.537-0.288,0.797c-0.045,0.074,0,0.19,0.023,0.283
	c0.033,0.141,0.021,0.25-0.048,0.387c-0.17,0.275-0.122,0.57,0.007,0.865c0.078,0.18,0.146,0.383,0.027,0.582
	c-0.034,0.047-0.044,0.119-0.034,0.176c0.081,0.68,0.153,1.369,0.373,2.031c0.185,0.51,0.477,0.956,0.847,1.354
	c0.095,0.11,0.152,0.026,0.187-0.063c0.102-0.275,0.19-0.56,0.305-0.835c0.326-0.834,0.696-1.665,1.029-2.497
	c0.177-0.449,0.424-0.849,0.689-1.246c0.118-0.176,0.255-0.332,0.397-0.498c0.329-0.36,0.305-0.888,0.152-1.244
	c-0.04-0.073-0.118-0.146-0.193-0.197c-0.139-0.094-0.299-0.172-0.435-0.271c-0.058-0.047-0.078-0.154-0.125-0.227
	c0.067-0.029,0.136-0.074,0.203-0.074c0.34,0.045,0.661,0.135,0.873,0.448c0.023,0.032,0.044,0.071,0.077,0.085
	c0.188,0.066,0.251,0.23,0.323,0.426c0.064-0.087,0.119-0.166,0.187-0.234c0.184-0.221,0.407-0.385,0.658-0.521
	c0.106-0.058,0.181-0.146,0.272-0.224c0.224-0.227,0.441-0.463,0.665-0.682c0.286-0.27,0.442-0.589,0.442-0.974
	c-0.011-0.255,0-0.501-0.011-0.756c0-0.285-0.111-0.523-0.296-0.757c-0.373-0.471-0.732-0.949-1.09-1.432
	c-0.091-0.13-0.149-0.283-0.217-0.424c0.017-0.012,0.031-0.029,0.051-0.043c0.058,0.031,0.116,0.064,0.166,0.104
	c0.326,0.295,0.649,0.59,0.978,0.873c0.146,0.125,0.313,0.215,0.477,0.307c0.176,0.09,0.248,0.078,0.339-0.113
	c0.078-0.136,0.129-0.277,0.194-0.42c0.155-0.352,0.424-0.621,0.732-0.837c0.363-0.267,0.737-0.504,1.135-0.742
	c0.315-0.18,0.577-0.435,0.758-0.747c0.21-0.333,0.102-0.695,0.01-1.035c-0.01-0.033-0.034-0.078-0.034-0.105
	c0.013-0.068,0.041-0.143,0.068-0.204c0.047,0.028,0.115,0.056,0.148,0.097c0.266,0.34,0.326,0.74,0.34,1.154
	c0,0.044,0.011,0.096,0.034,0.136c0.011,0.011,0.088,0,0.118-0.028c0.255-0.209,0.513-0.401,0.734-0.646
	c0.346-0.379,0.659-0.776,0.951-1.194c0.447-0.623,0.896-1.222,1.545-1.654c0.102-0.084,0.217-0.145,0.321-0.201
	c0.041-0.021,0.103-0.012,0.167,0.018c-0.092,0.096-0.184,0.198-0.285,0.27c-0.4,0.318-0.695,0.738-0.972,1.166
	c-0.148,0.244-0.336,0.461-0.489,0.697c-0.254,0.379-0.519,0.758-0.746,1.144c-0.3,0.504-0.733,0.864-1.192,1.212
	c-0.516,0.384-1.049,0.749-1.575,1.12c-0.513,0.358-0.886,0.808-1.104,1.397c-0.122,0.322-0.225,0.646-0.326,0.979
	c-0.081,0.294-0.047,0.604,0.017,0.904c0.027,0.147,0.096,0.183,0.241,0.106c0.218-0.112,0.432-0.237,0.646-0.344
	c0.329-0.183,0.68-0.243,1.043-0.302c0.356-0.051,0.736-0.072,1.079-0.141c0.289-0.057,0.561-0.182,0.743-0.43
	c0.137-0.188,0.238-0.396,0.357-0.589c0.02-0.039,0.071-0.068,0.119-0.091c0.02,0.037,0.067,0.096,0.061,0.123
	c-0.051,0.191-0.108,0.387-0.176,0.578c-0.045,0.131-0.113,0.248-0.164,0.373c-0.068,0.147-0.006,0.232,0.16,0.211
	c0.122-0.011,0.238-0.037,0.355-0.062c0.204-0.046,0.408-0.119,0.605-0.148c0.622-0.111,1.012-0.543,1.419-0.973
	c0.408-0.438,0.805-0.895,1.27-1.279c0.307-0.261,0.696-0.418,1.063-0.604c0.197-0.099,0.418-0.147,0.635-0.204
	c0.078-0.029,0.17-0.018,0.307-0.029c-0.049,0.068-0.059,0.107-0.085,0.124c-0.219,0.103-0.449,0.194-0.652,0.313
	c-0.364,0.212-0.724,0.438-1.076,0.687c-0.123,0.087-0.221,0.238-0.293,0.376c-0.285,0.592-0.726,1.025-1.236,1.404
	c-0.339,0.254-0.672,0.509-1.018,0.746c-0.367,0.26-0.798,0.34-1.226,0.379c-0.517,0.059-1.044,0.059-1.56,0.126
	c-0.383,0.051-0.757,0.187-1.13,0.274c-0.452,0.108-0.873,0.347-1.281,0.574c-0.066,0.026-0.139,0.09-0.163,0.146
	c-0.073,0.181-0.227,0.235-0.355,0.339c-0.144,0.102-0.272,0.225-0.408,0.328c-0.034,0.027-0.067,0.066-0.101,0.074
	c-0.307,0.096-0.477,0.365-0.715,0.539c-0.135,0.1-0.261,0.226-0.39,0.326c-0.109,0.084-0.17,0.174-0.221,0.307
	c-0.068,0.146-0.214,0.26-0.329,0.379c-0.089,0.105-0.197,0.199-0.282,0.305c-0.085,0.114-0.163,0.233-0.23,0.357
	c-0.041,0.072-0.064,0.156-0.086,0.242c-0.051,0.187-0.073,0.373-0.268,0.476c-0.197,0.108-0.214,0.323-0.282,0.501
	c-0.248,0.66-0.38,1.339-0.468,2.029c-0.034,0.254-0.099,0.509-0.15,0.759c-0.01,0.062-0.036,0.127-0.033,0.19
	c0.014,0.092,0.033,0.17,0.058,0.254c0.075-0.025,0.159-0.043,0.221-0.101c0.306-0.255,0.672-0.366,1.045-0.435
	c0.534-0.104,1.067-0.17,1.594-0.25c0.255-0.047,0.502-0.08,0.679-0.307c0.071-0.09,0.207-0.152,0.323-0.195
	c0.271-0.104,0.462-0.313,0.577-0.567c0.203-0.464,0.384-0.938,0.563-1.421c0.091-0.238,0.115-0.493,0.183-0.73
	c0.018-0.057,0.071-0.106,0.105-0.156c0.041,0.056,0.109,0.111,0.116,0.174c0.026,0.107,0,0.232-0.018,0.34
	c-0.115,0.68-0.237,1.354-0.362,2.037c-0.028,0.126,0.022,0.16,0.129,0.131c0.346-0.08,0.675-0.165,1.008-0.255
	c0.431-0.118,0.876-0.242,1.3-0.396c0.55-0.217,0.992-0.602,1.434-0.976c0.143-0.115,0.315-0.204,0.466-0.312
	c0.078-0.055,0.152-0.123,0.258-0.215c-0.477,0.018-0.747-0.176-0.903-0.584c-0.16-0.395-0.184-0.809-0.092-1.227
	c0.034-0.148,0.057-0.301,0.092-0.445c0.077-0.302,0.247-0.539,0.476-0.725c0.07-0.064,0.224-0.1,0.305-0.064
	c0.089,0.047,0.146,0.17,0.204,0.268c0.044,0.09,0.051,0.221,0.102,0.299c0.339,0.602,0.476,1.212,0.156,1.867
	c-0.034,0.055-0.034,0.125-0.037,0.188c-0.017,0.057-0.041,0.116-0.075,0.21c0.289-0.159,0.533-0.288,0.781-0.425
	c0.075-0.033,0.129-0.102,0.204-0.113c0.339-0.072,0.533-0.367,0.805-0.549c0.055-0.027,0.078-0.113,0.122-0.169
	c0.132-0.16,0.261-0.313,0.397-0.459c0.058-0.051,0.146-0.041,0.204-0.063c0.078-0.023,0.158-0.045,0.221-0.097
	c0.346-0.331,0.696-0.667,1.046-0.993c0.006-0.013,0.023-0.029,0.034-0.029c0.295-0.062,0.489-0.271,0.702-0.446
	c0.026-0.022,0.079-0.028,0.136-0.046c0,0.066,0,0.125-0.01,0.156c-0.144,0.199-0.263,0.416-0.441,0.606
	c-0.306,0.345-0.646,0.658-0.965,1.002c-0.271,0.284-0.509,0.591-0.774,0.871c-0.095,0.103-0.227,0.188-0.322,0.306
	c0.033-0.01,0.079-0.025,0.108-0.043c0.119-0.062,0.225-0.137,0.333,0.026c0.011,0.017,0.068,0.024,0.108,0.028
	c0.157,0.012,0.323,0.027,0.493,0.047c0.051,0,0.111,0.021,0.146,0.005c0.214-0.097,0.391,0.03,0.55,0.112
	c0.174,0.096,0.323,0.248,0.47,0.38c0.032,0.03,0.066,0.071,0.066,0.124c0,0.17,0.119,0.287,0.194,0.419
	c0.136,0.231,0.238,0.479,0.34,0.729c0.054,0.118-0.024,0.174-0.136,0.217c-0.286,0.072-0.562,0.105-0.85,0.056
	c-0.476-0.08-0.924-0.192-1.297-0.509c-0.214-0.184-0.431-0.369-0.517-0.662c0,0,0-0.023-0.01-0.035
	c-0.067-0.123-0.159-0.232-0.193-0.368c-0.034-0.129-0.003-0.276-0.003-0.43c-0.065,0.034-0.133,0.062-0.194,0.106
	c-0.18,0.141-0.346,0.307-0.55,0.414c-0.543,0.316-0.995,0.77-1.46,1.193c-0.35,0.328-0.713,0.65-1.073,0.984
	c-0.023,0.028-0.067,0.09-0.064,0.103c0.041,0.039,0.085,0.085,0.143,0.097c0.373,0.062,0.713,0.221,1.053,0.412
	c0.296,0.148,0.611,0.295,0.906,0.477c0.248,0.146,0.462,0.361,0.724,0.515c0.432,0.255,0.883,0.492,1.335,0.726
	c0.118,0.067,0.221,0.123,0.251,0.254c-0.008,0.022-0.014,0.043-0.023,0.058c-0.289-0.073-0.595-0.124-0.873-0.238
	c-0.486-0.204-0.978-0.435-1.447-0.685c-0.329-0.188-0.645-0.327-1.019-0.379c-0.285-0.051-0.543-0.221-0.815-0.316
	c-0.336-0.119-0.669-0.25-1.008-0.326c-0.481-0.104-0.907,0.102-1.313,0.321c-0.341,0.18-0.655,0.399-0.995,0.563
	c-0.509,0.244-1.063,0.289-1.606,0.393c-0.814,0.16-1.653,0.266-2.333,0.814c-0.265,0.203-0.533,0.418-0.771,0.649
	c-0.103,0.108-0.135,0.271-0.204,0.414c-0.332,0.803-0.325,1.651-0.373,2.501c-0.021,0.497,0.068,0.968,0.136,1.447
	c0.064,0.377,0.108,0.781,0.108,1.154c-0.01,0.883,0.079,1.738,0.214,2.604c0.075,0.459,0.041,0.938-0.003,1.409
	c-0.059,0.582-0.059,1.172,0.02,1.754c0.018,0.141,0.126,0.289,0.235,0.396c0.207,0.209,0.339,0.418,0.305,0.736
	c-0.04,0.305,0.038,0.6,0.299,0.814c0.401,0.345,0.799,0.691,1.199,1.035c0.041,0.033,0.064,0.09,0.091,0.142
	c-0.05,0.021-0.102,0.079-0.158,0.071c-0.259-0.021-0.452,0.115-0.68,0.205c-0.281,0.112-0.578,0.203-0.893,0.103
	c-0.18-0.067-0.364-0.112-0.554-0.138c-0.103-0.019-0.218,0.014-0.303,0.068c-0.333,0.237-0.706,0.271-1.046,0.051
	c-0.125-0.072-0.248-0.151-0.339-0.265c-0.333-0.392-0.961-0.369-1.315-0.062c-0.066,0.062-0.135,0.117-0.195,0.175
	c-0.279,0.243-0.687,0.321-1.002,0.151c-0.112-0.066-0.214-0.187-0.272-0.306c-0.18-0.378-0.465-0.458-0.805-0.187
	c-0.122,0.092-0.224,0.216-0.349,0.316c-0.3,0.268-0.674,0.356-1.063,0.441c-0.082,0.012-0.211-0.034-0.262-0.09
	c-0.044-0.071-0.034-0.204-0.023-0.297c0.018-0.071,0.074-0.135,0.125-0.187c0.433-0.424,0.737-0.944,1.077-1.448
	c0.078-0.119,0.163-0.255,0.258-0.373c0.237-0.311,0.237-0.695,0.339-1.048c0.119-0.43,0.219-0.849,0.364-1.262
	c0.176-0.47,0.146-0.935,0.034-1.404c-0.119-0.483-0.279-0.973-0.364-1.465c-0.102-0.552,0.024-1.092,0.313-1.579
	c0.084-0.141,0.163-0.287,0.271-0.406c0.266-0.302,0.266-0.686,0.313-1.041c0.078-0.703,0.111-1.422,0-2.129
	c-0.1-0.584-0.296-1.132-0.646-1.613c-0.058-0.084-0.126-0.18-0.204-0.237c-0.407-0.254-0.713-0.621-1.031-0.985
	c-0.401-0.451-0.917-0.701-1.447-0.938c-0.295-0.131-0.577-0.311-0.917-0.26c-0.354,0.051-0.692,0.146-1.036,0.221
	c-0.176,0.044-0.354,0.102-0.539,0.117c0.329-0.424,0.794-0.625,1.297-0.752c-0.027-0.045-0.027-0.062-0.041-0.069
	c-0.519-0.271-0.971-0.655-1.564-0.802c-0.357-0.09-0.687-0.289-1.036-0.447c-0.703-0.318-1.331-0.771-2.078-1.01
	c-0.279-0.084-0.537-0.271-0.771-0.453c-0.411-0.327-0.869-0.523-1.401-0.54c-0.765-0.024-1.535-0.108-2.282,0.085
	c-0.418,0.102-0.808,0.275-1.199,0.441c-0.23,0.105-0.448,0.256-0.669,0.377c-0.102,0.053-0.146,0.123-0.118,0.238
	c0.143,0.832-0.225,1.527-1.002,1.906c-0.646,0.316-1.311,0.441-2.021,0.398c-0.187-0.01-0.266-0.11-0.248-0.285
	c0.143-0.932,0.584-1.697,1.331-2.27c0.418-0.316,0.899-0.385,1.393-0.191c0.275,0.113,0.476,0.13,0.716-0.114
	c0.336-0.322,0.73-0.587,1.128-0.849c0.181-0.137,0.397-0.205,0.567-0.373c0.078-0.073,0.248-0.078,0.377-0.107
	c0.407-0.08,0.812-0.146,1.219-0.227c0.033-0.012,0.078-0.018,0.112-0.018c0.101-0.033,0.193-0.051,0.288,0.034
	c0.109,0.09,0.486,0.044,0.618-0.034c0.067-0.041,0.157-0.046,0.224-0.062c-0.292-0.486-0.631-0.938-1.141-1.25
	c-0.347-0.215-0.687-0.426-1.049-0.622c-0.096-0.058-0.248-0.029-0.356-0.074c-0.17-0.062-0.34-0.146-0.496-0.226
	c-0.092-0.039-0.17-0.101-0.271-0.125c-0.677-0.152-1.349-0.113-2.027-0.018c-0.229,0.042-0.465,0.051-0.689,0.062
	c-0.048-0.125,0.021-0.17,0.105-0.209c0.764-0.277,1.545-0.396,2.35-0.373c0.281,0,0.567,0.105,0.85,0.146
	c0.458,0.045,0.889,0.191,1.3,0.383c0.153,0.068,0.296,0.145,0.387,0.303c0.045,0.056,0.122,0.09,0.188,0.135
	c0.146,0.102,0.289,0.199,0.428,0.294c0.04,0.032,0.075,0.062,0.119,0.062c0.305-0.035,0.44,0.217,0.618,0.387
	c0.129,0.119,0.229,0.265,0.355,0.391c0.112,0.112,0.229,0.209,0.348,0.311c0.05,0.039,0.118,0.072,0.162,0.103
	c0.023-0.005,0.033-0.013,0.044-0.021c-0.017-0.133-0.021-0.264-0.061-0.383c-0.092-0.281-0.017-0.548,0.078-0.813
	c0.074-0.222,0.118-0.437,0.085-0.673c-0.021-0.131,0.013-0.268,0.047-0.397c0.085-0.293,0.071-0.582-0.115-0.842
	c-0.306-0.437-0.611-0.877-0.927-1.302c-0.024,0.007-0.045,0.012-0.041,0.017c0.051,0.347-0.19,0.628-0.221,0.963
	c-0.003,0.142-0.188,0.228-0.326,0.188c-0.04-0.018-0.098-0.008-0.142,0.017c-0.477,0.216-0.962,0.254-1.468,0.13
	c-0.078-0.023-0.152-0.037-0.224-0.058c-0.229-0.05-0.286-0.162-0.184-0.378c0.187-0.387,0.472-0.696,0.795-0.956
	c0.207-0.177,0.44-0.295,0.713-0.331c0.326-0.049,0.61,0.036,0.865,0.246c0.052,0.033,0.105,0.066,0.207,0.09
	c-0.067-0.254-0.102-0.521-0.18-0.77c-0.044-0.103-0.17-0.188-0.265-0.244c-0.188-0.092-0.37-0.152-0.55-0.237
	c-0.248-0.129-0.51-0.209-0.791-0.222c-0.272-0.01-0.551-0.057-0.815-0.068c-0.218-0.012-0.431-0.007-0.645-0.012
	c-0.194-0.006-0.388-0.006-0.584-0.026c-0.052-0.005-0.085-0.046-0.13-0.062c0.037-0.039,0.078-0.09,0.112-0.096
	c0.383-0.06,0.747-0.16,1.12-0.16c0.52,0.008,1.029,0.067,1.545,0.131c0.197,0.029,0.384,0.125,0.584,0.176
	c0.085,0.012,0.19,0.037,0.258,0c0.048-0.034,0.034-0.158,0.034-0.238c-0.044-0.463-0.186-0.898-0.377-1.324
	c-0.034-0.072-0.047-0.156-0.063-0.242c0.013-0.012,0.029-0.021,0.041-0.033c0.039,0.027,0.095,0.057,0.125,0.091
	c0.265,0.362,0.444,0.758,0.56,1.194c0.164,0.597,0.35,1.183,0.52,1.775c0.109,0.346,0.341,0.623,0.577,0.889
	c0.137,0.164,0.296,0.324,0.436,0.486c0.302,0.355,0.421,0.771,0.414,1.227c0,0.246,0.023,0.473,0.023,0.722
	c-0.014,0.306-0.034,0.622-0.051,0.938c0,0.062,0.017,0.123,0.017,0.191c0.034,0.316,0.068,0.645,0.103,0.958
	c0.02,0.181,0.112,0.332,0.258,0.435c0.482,0.373,0.951,0.771,1.508,1.025c0.461,0.214,0.938,0.412,1.412,0.594
	c0.51,0.192,1.016,0.361,1.494,0.65c0.584,0.359,1.223,0.609,1.881,0.781C127.278,160.056,127.458,160.149,127.686,160.234"/>
<path fill="#FFFFFF" d="M121.496,139.369c-0.747,0.028-1.206-0.353-1.569-1.064c-0.243-0.48-0.328-0.994-0.366-1.521
	c-0.017-0.187,0.017-0.373,0.044-0.572c0.017-0.151,0.129-0.187,0.278-0.164c0.395,0.059,0.758,0.203,1.107,0.402
	c0.431,0.243,0.829,0.549,1.11,0.969c0.214,0.352,0.35,0.719,0.228,1.146c-0.051,0.167-0.102,0.354-0.167,0.522
	c-0.104,0.244-0.203,0.297-0.458,0.283H121.496L121.496,139.369z"/>
<path fill="#FFFFFF" d="M150.141,151.146c0.21,0.021,0.414,0.044,0.617,0.066c0.222,0.027,0.282,0.096,0.238,0.316
	c-0.193,0.979-0.689,1.749-1.637,2.15c-0.503,0.208-1.029,0.191-1.532-0.047c-0.2-0.092-0.237-0.17-0.227-0.383
	c0.044-0.683,0.35-1.213,0.893-1.607C148.993,151.292,149.536,151.138,150.141,151.146"/>
<path fill="#FFFFFF" d="M149.207,146.843c0.728-0.01,1.358,0.232,1.959,0.601c0.129,0.078,0.103,0.192,0.034,0.282
	c-0.193,0.223-0.373,0.438-0.584,0.628c-0.424,0.368-0.934,0.608-1.487,0.729c-0.516,0.115-0.974-0.01-1.364-0.365
	c-0.089-0.086-0.163-0.182-0.256-0.262c-0.155-0.125-0.17-0.267-0.102-0.447c0.255-0.674,0.679-1.133,1.508-1.166
	C149.003,146.837,149.105,146.843,149.207,146.843"/>
<path fill="#FFFFFF" d="M115.852,140.935c0.764,0.033,1.416,0.316,1.892,0.917c0.298,0.38,0.342,0.849,0.213,1.315
	c-0.022,0.06-0.034,0.121-0.05,0.188c-0.075,0.216-0.177,0.345-0.435,0.396c-0.313,0.059-0.629,0.092-0.951-0.026
	c-0.455-0.153-0.754-0.47-0.951-0.89c-0.255-0.521-0.319-1.069-0.251-1.646c0.034-0.213,0.092-0.266,0.306-0.255L115.852,140.935
	L115.852,140.935z"/>
<path fill="#FFFFFF" d="M122.79,163.005c0.015-0.401,0.176-0.725,0.421-1.014c0.034-0.039,0.071-0.062,0.096-0.095
	c0.193-0.301,0.458-0.283,0.754-0.183c0.475,0.154,0.852,0.441,1.019,0.9c0.103,0.275,0.122,0.594,0.105,0.889
	c-0.038,0.521-0.207,1.013-0.526,1.442c-0.119,0.152-0.187,0.185-0.35,0.097c-0.656-0.356-1.196-0.812-1.42-1.557
	C122.836,163.333,122.82,163.171,122.79,163.005"/>
<path fill="#FFFFFF" d="M110.019,151.699c0.4-0.017,0.739,0.029,1.072,0.17c0.526,0.229,0.948,0.812,0.896,1.473
	c-0.006,0.131,0.017,0.311-0.057,0.367c-0.188,0.164-0.414,0.309-0.662,0.386c-0.703,0.226-1.291-0.034-1.773-0.55
	c-0.355-0.373-0.547-0.844-0.683-1.342c-0.047-0.156,0.035-0.275,0.225-0.34C109.374,151.757,109.707,151.666,110.019,151.699"/>
<path fill="#FFFFFF" d="M117.302,160.759c0.027-0.688,0.171-1.272,0.486-1.811c0.351-0.615,1.161-0.849,1.681-0.634
	c0.074,0.026,0.146,0.09,0.18,0.146c0.075,0.178,0.133,0.353,0.177,0.526c0.092,0.458-0.044,0.849-0.316,1.212
	c-0.339,0.441-0.787,0.725-1.286,0.939c-0.207,0.085-0.425,0.132-0.646,0.191c-0.104,0.033-0.173-0.022-0.197-0.129
	C117.346,161.028,117.312,160.85,117.302,160.759"/>
<path fill="#FFFFFF" d="M134.07,146.935c0-0.589,0.265-1.064,0.628-1.494c0.136-0.145,0.278-0.266,0.418-0.391
	c0.17-0.159,0.289-0.147,0.431,0.029c0.485,0.615,0.737,1.299,0.584,2.092c-0.099,0.498-0.431,0.774-0.849,1.009
	c-0.268,0.141-0.458,0.103-0.679-0.106C134.25,147.759,134.08,147.387,134.07,146.935"/>
<path fill="#FFFFFF" d="M114.715,148.859c-0.041,0.146-0.095,0.385-0.163,0.623c-0.051,0.137-0.159,0.188-0.302,0.163
	c-0.418-0.052-0.758-0.228-1.056-0.515c-0.374-0.356-0.594-0.805-0.71-1.291c-0.105-0.44-0.071-0.895,0-1.354
	c0.031-0.143,0.153-0.162,0.262-0.111c0.288,0.129,0.57,0.26,0.831,0.424c0.306,0.191,0.554,0.473,0.771,0.775
	C114.586,147.929,114.674,148.328,114.715,148.859"/>
<path fill="#FFFFFF" d="M135.184,136.08c0.033,0.532-0.103,1.019-0.441,1.422c-0.146,0.174-0.35,0.293-0.53,0.43
	c-0.067,0.062-0.183,0.156-0.217,0.125c-0.112-0.051-0.204-0.16-0.271-0.254c-0.408-0.522-0.476-1.121-0.341-1.744
	c0.137-0.674,0.545-1.172,1.033-1.618c0.102-0.097,0.203-0.092,0.271,0.036c0.111,0.195,0.237,0.395,0.326,0.613
	C135.149,135.414,135.217,135.734,135.184,136.08"/>
<path fill="#FFFFFF" d="M145.757,143.816c-0.543-0.005-0.95-0.165-1.323-0.43c-0.255-0.188-0.289-0.368-0.082-0.618
	c0.441-0.536,1.043-0.757,1.722-0.747c0.56,0.007,1.086,0.193,1.569,0.499c0.051,0.028,0.088,0.067,0.139,0.103
	c0.085,0.067,0.081,0.129,0.007,0.215c-0.255,0.301-0.571,0.525-0.927,0.689C146.491,143.708,146.083,143.798,145.757,143.816"/>
<path fill="#FFFFFF" d="M123.102,156.351c-0.011-0.328,0.023-0.637,0.255-0.895c0.067-0.068,0.125-0.146,0.192-0.219
	c0.005-0.017,0.034-0.037,0.052-0.037c0.248,0.059,0.513-0.136,0.764,0.074c0.034,0.034,0.112,0.034,0.173,0.021
	c0.188-0.028,0.517,0.191,0.562,0.387c0.063,0.236,0.136,0.48,0.21,0.723c0.051,0.17-0.008,0.441-0.129,0.557
	c-0.068,0.051-0.115,0.123-0.126,0.201c-0.067,0.273-0.193,0.517-0.356,0.744c-0.085,0.118-0.197,0.141-0.323,0.072
	c-0.346-0.216-0.679-0.459-0.876-0.837c-0.03-0.052-0.074-0.108-0.132-0.144c-0.214-0.119-0.299-0.293-0.265-0.543
	C123.109,156.419,123.102,156.38,123.102,156.351"/>
<path fill="#FFFFFF" d="M147.713,163.324c-0.407-0.041-0.824-0.091-1.165-0.385c-0.271-0.229-0.406-0.539-0.44-0.889
	c-0.024-0.074,0.023-0.17,0.078-0.229c0.499-0.519,1.12-0.621,1.766-0.298c0.509,0.247,0.917,0.604,1.236,1.074
	c0.111,0.17,0.088,0.282-0.103,0.374C148.654,163.19,148.202,163.283,147.713,163.324"/>
<path fill="#FFFFFF" d="M138.613,139.312c0-0.165,0.085-0.425,0.217-0.674c0.316-0.577,0.798-0.951,1.41-1.166
	c0.282-0.104,0.594-0.125,0.899-0.163c0.146-0.024,0.225,0.065,0.203,0.22c-0.074,0.477-0.217,0.922-0.522,1.301
	c-0.169,0.221-0.35,0.448-0.561,0.623c-0.322,0.277-0.717,0.402-1.131,0.412C138.732,139.882,138.647,139.804,138.613,139.312"/>
<path fill="#FFFFFF" d="M138.501,155.726c0.024-0.173,0.044-0.338,0.068-0.504c0.041-0.309,0.17-0.568,0.363-0.807
	c0.163-0.223,0.391-0.328,0.61-0.438c0.222-0.105,0.459-0.175,0.697-0.255c0.23-0.073,0.298-0.021,0.332,0.229
	c0.079,0.557,0.01,1.086-0.227,1.601c-0.19,0.409-0.486,0.741-0.918,0.915c-0.17,0.058-0.339,0.119-0.513,0.143
	c-0.192,0.028-0.277-0.039-0.322-0.227c-0.051-0.209-0.082-0.432-0.118-0.65C138.484,155.728,138.491,155.728,138.501,155.726"/>
<path fill="#FFFFFF" d="M145.387,153.821c0,0.063,0.007,0.132,0,0.195c-0.021,0.128-0.068,0.218-0.222,0.174
	c-0.044,0-0.095-0.012-0.136,0.011c-0.088,0.059-0.162,0.022-0.224-0.052c-0.067-0.071-0.137-0.085-0.238-0.062
	c-0.091,0.021-0.203,0.011-0.302-0.012c-0.356-0.091-0.706-0.199-1.022-0.426c-0.396-0.275-0.713-0.908-0.624-1.385
	c0.023-0.075,0.102-0.161,0.183-0.188c0.425-0.17,0.859-0.17,1.273,0.018c0.265,0.111,0.51,0.277,0.663,0.543
	c0.01,0.027,0.054,0.056,0.087,0.068c0.238,0.071,0.354,0.275,0.422,0.479c0.085,0.198,0.118,0.412,0.17,0.621
	C145.404,153.816,145.395,153.821,145.387,153.821"/>
<path fill="#FFFFFF" d="M122.484,138.871c0.058-0.969,0.726-1.682,1.562-2.004c0.137-0.062,0.271-0.097,0.407-0.131
	c0.16-0.046,0.211-0.005,0.245,0.148c0.092,0.4,0.024,0.803-0.085,1.176c-0.119,0.379-0.296,0.73-0.584,1.005
	c-0.323,0.304-0.696,0.495-1.155,0.501c-0.139,0.006-0.236-0.059-0.274-0.188C122.552,139.214,122.525,139.048,122.484,138.871"/>
<path fill="#FFFFFF" d="M147.948,154.498c0.442,0,0.832,0.145,1.199,0.39c0.399,0.264,0.695,0.628,0.91,1.046
	c0.081,0.146,0.051,0.227-0.112,0.295c-0.401,0.152-0.815,0.191-1.25,0.152c-0.448-0.051-0.855-0.186-1.205-0.471
	c-0.262-0.216-0.442-0.492-0.533-0.826c-0.044-0.158,0.006-0.271,0.143-0.361C147.363,154.563,147.642,154.488,147.948,154.498"/>
<path fill="#FFFFFF" d="M143.176,148.227c-0.058,0.581-0.132,1.051-0.454,1.435c-0.282,0.34-0.648,0.526-1.08,0.572
	c-0.034,0.006-0.096-0.018-0.108-0.046c-0.292-0.543-0.394-1.104-0.153-1.687c0.21-0.476,0.533-0.854,0.991-1.107
	c0.112-0.059,0.229-0.123,0.34-0.17c0.103-0.041,0.193-0.014,0.214,0.085C143.027,147.641,143.119,147.99,143.176,148.227"/>
<path fill="#FFFFFF" d="M144.691,148.003c0.023-0.737,0.318-1.238,0.822-1.611c0.243-0.184,0.535-0.296,0.814-0.419
	c0.179-0.091,0.271-0.022,0.322,0.163c0.17,0.719,0.034,1.382-0.397,1.971c-0.281,0.391-0.688,0.596-1.182,0.596
	c-0.143,0.006-0.23-0.094-0.265-0.217C144.749,148.304,144.715,148.112,144.691,148.003"/>
<path fill="#FFFFFF" d="M139.377,162.531c-0.017,0.577-0.139,1.109-0.444,1.608c-0.081,0.106-0.17,0.136-0.278,0.044
	c-0.418-0.362-0.707-0.82-0.883-1.346c-0.109-0.354-0.163-0.691-0.018-1.049c0.103-0.261,0.295-0.465,0.52-0.604
	c0.058-0.046,0.177-0.029,0.251,0C139.112,161.433,139.374,161.908,139.377,162.531"/>
<path fill="#FFFFFF" d="M142.314,142.414c0-0.754,0.217-1.25,0.645-1.652c0.103-0.098,0.204-0.184,0.304-0.272
	c0.094-0.085,0.205-0.071,0.274,0.046c0.152,0.256,0.322,0.516,0.346,0.832c0.027,0.238,0.096,0.481,0.074,0.715
	c-0.047,0.606-0.318,1.088-0.883,1.356c-0.169,0.079-0.261,0.045-0.387-0.097C142.429,143.023,142.304,142.656,142.314,142.414"/>
<path fill="#FFFFFF" d="M134.07,140.28c0.017-0.589,0.265-1.03,0.672-1.393c0.387-0.353,0.849-0.505,1.349-0.56
	c0.125-0.018,0.18,0.043,0.193,0.161c0.01,0.433-0.068,0.839-0.262,1.229c-0.176,0.35-0.417,0.646-0.765,0.85
	c-0.287,0.157-0.594,0.203-0.905,0.195c-0.14,0-0.225-0.072-0.248-0.213C134.087,140.451,134.08,140.347,134.07,140.28"/>
<path fill="#FFFFFF" d="M140.708,143.708c-0.023,0.549-0.271,1.135-0.883,1.486c-0.214,0.129-0.248,0.109-0.417-0.051
	c-0.517-0.497-0.507-1.495-0.17-2.02c0.189-0.301,0.475-0.504,0.767-0.693c0.065-0.037,0.2-0.025,0.251,0.025
	C140.528,142.729,140.708,143.188,140.708,143.708"/>
<path fill="#FFFFFF" d="M127.856,150.013c-0.051,0.17-0.103,0.373-0.17,0.572c-0.052,0.162-0.188,0.203-0.356,0.17
	c-0.729-0.16-1.247-0.907-1.301-1.592c-0.013-0.346,0.021-0.68,0.044-1.008c0.01-0.168,0.119-0.227,0.265-0.158
	c0.696,0.271,1.186,0.742,1.423,1.455C127.815,149.617,127.815,149.792,127.856,150.013"/>
<path fill="#FFFFFF" d="M130.311,143.458v0.013c-0.003,0.53-0.173,0.659-0.68,0.53c-0.638-0.146-1.056-0.543-1.307-1.107
	c-0.088-0.204-0.078-0.462-0.068-0.693c0.014-0.435,0.034-0.435,0.473-0.394c0.502,0.044,0.92,0.248,1.232,0.651
	C130.191,142.751,130.311,143.085,130.311,143.458"/>
<path fill="#FFFFFF" d="M113.112,152.044h-0.139c-0.279,0.006-0.374-0.084-0.289-0.346c0.248-0.781,0.679-1.402,1.515-1.613
	c0.268-0.072,0.516-0.051,0.77,0.047c0.181,0.062,0.204,0.152,0.181,0.339c-0.112,0.907-0.979,1.506-1.786,1.562
	C113.282,152.039,113.203,152.039,113.112,152.044"/>
<path fill="#FFFFFF" d="M116.864,148.033c-0.611-0.035-1.07-0.261-1.453-0.662c-0.214-0.238-0.356-0.533-0.483-0.82
	c-0.07-0.17,0.008-0.258,0.245-0.312c0.432-0.085,0.859-0.028,1.264,0.142c0.366,0.149,0.695,0.361,0.869,0.742
	c0.074,0.148,0.133,0.312,0.167,0.467c0.051,0.188-0.034,0.318-0.219,0.357C117.101,147.99,116.962,148.015,116.864,148.033"/>
<path fill="#FFFFFF" d="M135.184,156.809h0.237c0.034,0,0.092,0,0.115,0.028c0.112,0.192,0.323,0.158,0.496,0.209
	c0.153,0.039,0.188,0.102,0.132,0.254c-0.21,0.533-0.55,0.969-1.083,1.201c-0.44,0.192-0.902,0.203-1.31-0.108
	c-0.048-0.028-0.092-0.118-0.092-0.17c0.058-0.31,0.169-0.585,0.414-0.798c0.07-0.068,0.104-0.188,0.187-0.264
	c0.088-0.086,0.18-0.178,0.299-0.223c0.187-0.079,0.391-0.113,0.587-0.17C135.173,156.789,135.173,156.796,135.184,156.809"/>
<path fill="#FFFFFF" d="M144.861,163.096c-0.027,0.17-0.078,0.442-0.146,0.702c-0.033,0.154-0.159,0.203-0.281,0.142
	c-0.659-0.312-1.135-0.774-1.246-1.522c-0.044-0.26-0.011-0.521,0.111-0.77c0.116-0.255,0.245-0.307,0.511-0.209
	C144.538,161.701,144.793,162.283,144.861,163.096"/>
<path fill="#FFFFFF" d="M120.437,141.507c-0.137-0.014-0.282-0.029-0.418-0.049c-0.137-0.008-0.184-0.082-0.153-0.207
	c0.085-0.373,0.275-0.685,0.537-0.955c0.306-0.307,0.669-0.539,1.111-0.605c0.271-0.035,0.512,0.039,0.756,0.123
	c0.126,0.051,0.112,0.195,0.086,0.307c-0.103,0.471-0.357,0.826-0.775,1.069C121.228,141.393,120.85,141.507,120.437,141.507"/>
<path fill="#FFFFFF" d="M115.659,159.912c-0.044,0.221-0.088,0.459-0.129,0.68c-0.027,0.152-0.143,0.17-0.248,0.107
	c-0.234-0.146-0.482-0.289-0.679-0.472c-0.459-0.431-0.703-0.956-0.595-1.589c0.017-0.137,0.068-0.274,0.118-0.396
	c0.062-0.137,0.222-0.193,0.392-0.137c0.374,0.125,0.654,0.373,0.835,0.695C115.591,159.238,115.621,159.429,115.659,159.912"/>
<path fill="#FFFFFF" d="M136.572,155.66c0.051-0.365,0.085-0.713,0.129-1.062c0.024-0.114,0.095-0.147,0.204-0.119
	c0.159,0.03,0.305,0.074,0.373,0.255c0.041,0.102,0.136,0.191,0.214,0.268c0.387,0.293,0.612,0.693,0.642,1.164
	c0.004,0.307-0.073,0.606-0.148,0.912c-0.011,0.043-0.14,0.106-0.214,0.111c-0.384,0.007-0.866-0.328-0.985-0.686
	C136.694,156.232,136.643,155.939,136.572,155.66"/>
<path fill="#FFFFFF" d="M121.054,151.808c0.051-0.202,0.095-0.414,0.152-0.629c0.088-0.396,0.621-0.635,0.979-0.61
	c0.061,0,0.142,0.062,0.192,0.111c0.377,0.42,0.429,0.899,0.146,1.407c-0.197,0.365-0.499,0.643-0.855,0.857
	c-0.18,0.115-0.258,0.096-0.356-0.109c-0.153-0.328-0.255-0.655-0.207-1.019C121.081,151.818,121.071,151.808,121.054,151.808"/>
<path fill="#FFFFFF" d="M125.438,146.753c-0.003,0.453-0.156,0.844-0.476,1.16c-0.102,0.101-0.221,0.176-0.34,0.244
	c-0.034,0.021-0.111,0.016-0.152,0c-0.163-0.119-0.31-0.25-0.356-0.453c-0.055-0.223-0.136-0.435-0.146-0.658
	c-0.027-0.633,0.315-1.062,0.825-1.385c0.058-0.023,0.184-0.019,0.217,0.026C125.285,145.99,125.469,146.333,125.438,146.753"/>
<path fill="#FFFFFF" d="M139.628,141.49c-0.39-0.012-0.703-0.062-0.98-0.293c-0.112-0.097-0.123-0.199-0.044-0.322
	c0.248-0.387,0.621-0.602,1.052-0.695c0.347-0.075,0.713-0.075,1.062,0c0.184,0.039,0.374,0.111,0.551,0.191
	c0.129,0.057,0.146,0.151,0.051,0.267C140.854,141.155,140.277,141.458,139.628,141.49"/>
<path fill="#FFFFFF" d="M138.603,146.188c-0.533-0.034-0.944-0.153-1.216-0.492c-0.166-0.211-0.244-0.487-0.347-0.737
	c-0.041-0.095,0.024-0.162,0.112-0.195c0.391-0.194,0.795-0.256,1.212-0.109c0.442,0.16,0.781,0.414,0.961,0.855
	c0.103,0.248,0.082,0.391-0.169,0.492C138.949,146.091,138.722,146.142,138.603,146.188"/>
<path fill="#FFFFFF" d="M143.968,145.585c-0.431-0.012-0.872-0.146-1.188-0.553c-0.136-0.158-0.126-0.256,0.033-0.386
	c0.449-0.425,0.984-0.453,1.562-0.345c0.383,0.07,0.702,0.289,1.008,0.52c0.122,0.086,0.096,0.203-0.041,0.312
	C144.953,145.434,144.501,145.537,143.968,145.585"/>
<path fill="#FFFFFF" d="M147.102,150.307c-0.502-0.011-1.005-0.192-1.328-0.713c-0.081-0.112-0.064-0.204,0.038-0.282
	c0.285-0.204,0.574-0.334,0.951-0.346c0.628-0.01,1.119,0.24,1.562,0.645c0.21,0.193,0.183,0.288-0.079,0.42
	C147.917,150.201,147.557,150.291,147.102,150.307"/>
<path fill="#FFFFFF" d="M117.754,147.266c0.011-0.644,0.214-1.073,0.595-1.418c0.118-0.114,0.255-0.21,0.391-0.306
	c0.109-0.074,0.186-0.045,0.238,0.067c0.247,0.582,0.28,1.181-0.007,1.742c-0.153,0.295-0.392,0.526-0.725,0.636
	c-0.129,0.037-0.213,0-0.288-0.119C117.805,147.641,117.747,147.403,117.754,147.266"/>
<path fill="#FFFFFF" d="M132.263,142.928c-0.018,0.497-0.248,0.837-0.611,1.092c-0.242,0.175-0.51,0.276-0.809,0.267
	c-0.129-0.013-0.203-0.062-0.247-0.182c-0.086-0.243-0.065-0.48,0.01-0.702c0.197-0.61,0.604-0.983,1.231-1.093
	c0.255-0.044,0.323,0.007,0.37,0.266C132.236,142.701,132.253,142.826,132.263,142.928"/>
<path fill="#FFFFFF" d="M131.108,155.112c0.034-0.301,0.067-0.623,0.285-0.86c0.224-0.248,0.513-0.356,0.825-0.418
	c0.04-0.006,0.092-0.006,0.13-0.006c0.321-0.027,0.505,0.236,0.387,0.543c-0.041,0.084-0.051,0.182-0.065,0.278
	c-0.017,0.213-0.102,0.39-0.248,0.543c-0.078,0.077-0.146,0.196-0.21,0.29c-0.174,0.273-0.377,0.348-0.683,0.258
	c-0.047-0.005-0.091-0.005-0.142,0c-0.164,0.028-0.222-0.005-0.245-0.175C131.125,155.417,131.123,155.269,131.108,155.112"/>
<path fill="#FFFFFF" d="M133.197,149.796c-0.153-0.043-0.425-0.121-0.689-0.221c-0.143-0.051-0.152-0.188-0.085-0.306
	c0.237-0.515,0.621-0.858,1.199-0.935c0.319-0.043,0.601,0.068,0.838,0.295c0.144,0.125,0.092,0.272,0.034,0.418
	C134.28,149.567,133.859,149.776,133.197,149.796"/>
<path fill="#FFFFFF" d="M121.411,162.578c-0.16-0.029-0.312-0.062-0.475-0.095c-0.137-0.032-0.178-0.11-0.133-0.229
	c0.295-0.645,0.991-1.219,1.789-1.08c0.084,0.013,0.163,0.033,0.244,0.062c0.231,0.09,0.248,0.17,0.17,0.407
	C122.786,162.328,122.022,162.582,121.411,162.578"/>
<path fill="#FFFFFF" d="M145.316,159.611c0.306-0.025,0.597,0.034,0.876,0.153c0.163,0.073,0.177,0.19,0.067,0.327
	c-0.288,0.347-0.661,0.584-1.094,0.693c-0.373,0.094-0.757,0.064-1.096-0.168c-0.146-0.111-0.16-0.271-0.027-0.441
	c0.275-0.346,0.631-0.553,1.086-0.564H145.316z"/>
<path fill="#FFFFFF" d="M131.462,151.774c0.74-0.007,1.301,0.479,1.419,1.21c0.034,0.256-0.107,0.561-0.491,0.48
	c-0.551-0.118-0.928-0.398-1.121-0.922c-0.058-0.183-0.103-0.375-0.143-0.556c-0.037-0.138,0.024-0.204,0.166-0.214L131.462,151.774
	L131.462,151.774z"/>
<path fill="#FFFFFF" d="M112.973,154.63c0.026,0.611-0.391,1.154-1.025,1.414c-0.112,0.047-0.238,0.08-0.364,0.103
	c-0.111,0.017-0.189-0.028-0.189-0.157c-0.015-0.714,0.204-1.308,0.869-1.652c0.149-0.078,0.354-0.086,0.522-0.104
	c0.055-0.011,0.136,0.085,0.156,0.143C112.976,154.449,112.958,154.55,112.973,154.63"/>
<path fill="#FFFFFF" d="M116.294,145.417h-0.23c-0.178-0.012-0.244-0.104-0.178-0.262c0.263-0.667,0.707-1.119,1.454-1.205
	c0.099-0.012,0.2,0.006,0.289,0.029c0.251,0.039,0.329,0.18,0.262,0.424c-0.146,0.516-0.51,0.815-1.02,0.944
	c-0.187,0.051-0.383,0.075-0.566,0.108C116.294,145.446,116.294,145.434,116.294,145.417"/>
<path fill="#FFFFFF" d="M135.468,150.332c0.292,0.01,0.391,0.141,0.341,0.435c-0.126,0.702-0.795,1.138-1.358,1.229
	c-0.092,0.021-0.187,0.021-0.272,0.039c-0.149,0.033-0.228-0.029-0.193-0.154c0.067-0.262,0.136-0.537,0.262-0.774
	c0.204-0.392,0.543-0.629,0.971-0.753c0.041-0.012,0.081-0.021,0.125-0.021C135.388,150.324,135.435,150.332,135.468,150.332"/>
<path fill="#FFFFFF" d="M147.238,152.876c-0.021,0.375-0.102,0.724-0.39,0.979c-0.079,0.085-0.182,0.148-0.289,0.178
	c-0.068,0.016-0.204-0.029-0.248-0.08c-0.181-0.307-0.238-0.641-0.129-0.984c0.095-0.352,0.289-0.643,0.56-0.871
	c0.156-0.148,0.258-0.131,0.326,0.072C147.143,152.402,147.184,152.64,147.238,152.876"/>
<rect x="95.875" y="239.583" width="1.488" height="6.74"/>
<path d="M100.596,246.41l1.555-2.535c-0.153,0.045-0.312,0.071-0.458,0.071c-0.5,0-0.941-0.214-1.298-0.622
	c-0.356-0.412-0.536-0.91-0.536-1.492c0-0.67,0.214-1.219,0.635-1.664c0.441-0.448,0.968-0.666,1.606-0.666
	c0.628,0,1.165,0.218,1.586,0.666c0.424,0.445,0.631,1.002,0.631,1.681c0,0.795-0.292,1.681-0.886,2.632l-1.186,1.93H100.596
	L100.596,246.41z M102.066,242.792c0.214,0,0.396-0.097,0.543-0.283c0.136-0.182,0.204-0.43,0.204-0.725
	c0-0.322-0.059-0.572-0.197-0.752c-0.142-0.187-0.319-0.271-0.55-0.271c-0.228,0-0.408,0.096-0.55,0.281
	c-0.146,0.199-0.222,0.438-0.222,0.73c0,0.307,0.068,0.555,0.218,0.741C101.648,242.696,101.839,242.792,102.066,242.792"/>
<path d="M106.82,243.416v-1.185c0.271,0,0.499-0.082,0.669-0.237c0.17-0.152,0.255-0.346,0.255-0.558
	c0-0.229-0.085-0.421-0.271-0.567c-0.185-0.147-0.404-0.217-0.687-0.217c-0.374,0-0.791,0.107-1.233,0.322v-1.188
	c0.442-0.193,0.962-0.285,1.539-0.285c0.636,0,1.164,0.156,1.556,0.455c0.39,0.312,0.594,0.701,0.594,1.188
	c0,0.674-0.326,1.189-0.995,1.559c0.791,0.305,1.182,0.883,1.182,1.73c0,0.6-0.214,1.074-0.648,1.438
	c-0.431,0.355-1.019,0.537-1.749,0.537c-0.594,0-1.145-0.131-1.646-0.384v-1.31c0.502,0.363,0.984,0.533,1.419,0.533
	c0.316,0,0.567-0.08,0.765-0.25c0.193-0.158,0.295-0.367,0.295-0.64c0-0.263-0.098-0.485-0.278-0.661
	C107.39,243.528,107.135,243.431,106.82,243.416"/>
<rect x="112.22" y="239.583" width="1.486" height="6.74"/>
<g>
	<path fill="#FFFFFF" d="M13.213,61.58l2.894,1.506c0.017,2.11-0.448,4.07-1.393,5.886c-1.222,2.348-2.846,3.881-4.873,4.601
		c-2.02,0.713-3.982,0.577-5.884-0.414c-1.898-0.986-3.138-2.569-3.69-4.72c-0.567-2.161-0.229-4.424,1.008-6.796
		c0.978-1.885,2.2-3.289,3.66-4.182l2.943,1.533c-1.737,1.133-2.983,2.416-3.725,3.849c-0.729,1.41-0.957,2.756-0.672,4.046
		c0.292,1.29,1.019,2.229,2.193,2.84c1.172,0.612,2.366,0.675,3.59,0.194c1.222-0.482,2.196-1.409,2.909-2.796
		c0.36-0.679,0.614-1.381,0.758-2.1C13.077,64.295,13.169,63.153,13.213,61.58"/>
	<path fill="#FFFFFF" d="M11.787,45.746l15.926,3.599l-2.388,3.209l-3.096-0.776l-3.99,5.36l1.694,2.654l-2.351,3.157l-8.37-13.751
		L11.787,45.746z M19.485,51.087l-6.088-1.521l3.338,5.221L19.485,51.087z"/>
	<polygon fill="#FFFFFF" points="27.882,36.189 27.556,28.88 29.909,26.662 40.164,37.5 37.458,40.055 31.064,33.292 31.346,39.452 
		30.938,39.842 24.799,39.209 31.193,45.977 28.493,48.53 18.252,37.691 20.581,35.471 	"/>
	<path fill="#FFFFFF" d="M34.062,23.561l5.344-3.622c1.274-0.86,2.489-1.222,3.634-1.103c1.137,0.118,1.989,0.594,2.558,1.436
		c0.723,1.076,0.712,2.27-0.024,3.615c0.998-0.36,1.918-0.399,2.75-0.14c0.839,0.267,1.508,0.776,2.027,1.529
		c0.713,1.074,0.94,2.195,0.655,3.373c-0.281,1.171-1.141,2.241-2.573,3.209l-6.027,4.063L34.062,23.561z M38.67,23.742l1.79,2.642
		l1.616-1.087c0.489-0.332,0.795-0.723,0.897-1.164c0.104-0.442,0.02-0.849-0.229-1.24c-0.255-0.373-0.604-0.594-1.053-0.656
		c-0.441-0.055-0.91,0.073-1.415,0.407L38.67,23.742z M41.988,28.649l1.969,2.92l1.732-1.163c0.832-0.558,1.342-1.061,1.545-1.536
		c0.207-0.476,0.119-0.992-0.255-1.552c-0.295-0.43-0.692-0.655-1.202-0.679c-0.509-0.011-1.062,0.17-1.629,0.555L41.988,28.649z"/>
	<path fill="#FFFFFF" d="M48.222,14.426l5.989-2.915c1.301-0.633,2.533-0.774,3.711-0.424c1.189,0.363,2.038,1.069,2.558,2.146
		c0.713,1.477,0.481,2.942-0.706,4.397c0.822-0.024,1.86,0.492,3.131,1.538c1.259,1.048,2.462,2.032,3.609,2.944l-3.667,1.783
		c-0.436-0.33-1.229-0.983-2.377-1.961c-1.154-0.983-2.004-1.549-2.558-1.713c-0.566-0.163-1.065-0.129-1.507,0.085l-0.961,0.465
		l2.658,5.443l-3.337,1.63L48.222,14.426z M52.762,15.258l1.493,3.06l1.757-0.87c0.562-0.271,0.949-0.623,1.146-1.047
		c0.197-0.43,0.177-0.888-0.061-1.38c-0.499-1.014-1.375-1.211-2.648-0.583L52.762,15.258z"/>
	
		<rect x="59.716" y="12.285" transform="matrix(0.3428 0.9394 -0.9394 0.3428 57.4338 -53.8073)" fill="#FFFFFF" width="14.918" height="3.723"/>
	<path fill="#FFFFFF" d="M70.82,4.84l6.407-1.523c2.472-0.582,4.584-0.368,6.343,0.646c1.766,1.013,2.9,2.597,3.409,4.742
		c0.529,2.253,0.221,4.193-0.931,5.828c-1.153,1.625-3.083,2.757-5.789,3.402l-5.996,1.415L70.82,4.84z M75.071,6.64l2.173,9.195
		l2.367-0.56c1.528-0.362,2.601-1.056,3.209-2.088c0.614-1.036,0.75-2.247,0.434-3.622c-0.346-1.433-1.018-2.456-2.037-3.081
		c-1.012-0.625-2.299-0.756-3.826-0.387L75.071,6.64z"/>
	<path fill="#FFFFFF" d="M104.127,0.873l0.207,3.255C102.382,3.335,100.493,3,98.68,3.117c-1.742,0.111-3.06,0.642-3.949,1.581
		c-0.883,0.946-1.283,2.1-1.198,3.464c0.088,1.307,0.631,2.331,1.629,3.085c0.995,0.747,2.27,1.069,3.804,0.967
		c0.825-0.051,1.63-0.283,2.432-0.691l-0.112-1.736l-2.15,0.146l-0.183-2.732l5.874-0.38l0.398,6.078
		c-0.555,0.628-1.42,1.171-2.605,1.624c-1.175,0.447-2.353,0.714-3.534,0.791c-2.588,0.17-4.771-0.412-6.534-1.731
		c-1.752-1.329-2.709-3.09-2.845-5.302c-0.16-2.258,0.561-4.153,2.14-5.688c1.562-1.533,3.678-2.379,6.333-2.557
		C100.368-0.107,102.347,0.177,104.127,0.873"/>
	<polygon fill="#FFFFFF" points="119.282,13.102 119.044,15.83 108.086,14.897 109.343,0.029 120.165,0.946 119.934,3.669 
		112.82,3.068 112.559,6.187 119.34,6.764 119.112,9.486 112.331,8.912 112.026,12.486 	"/>
	<path fill="#FFFFFF" d="M140.64,6.583l-0.771,2.81c-1.667-1.379-3.073-2.233-4.203-2.538c-0.651-0.18-1.188-0.214-1.63-0.102
		c-0.442,0.109-0.707,0.346-0.808,0.704c-0.075,0.276-0.007,0.569,0.203,0.892c0.196,0.326,0.78,0.832,1.734,1.514
		c0.958,0.688,1.705,1.282,2.248,1.791c0.554,0.515,0.976,1.143,1.268,1.878c0.295,0.742,0.318,1.574,0.058,2.508
		c-0.374,1.336-1.165,2.253-2.394,2.764c-1.229,0.513-2.677,0.547-4.33,0.083c-1.782-0.492-3.386-1.433-4.806-2.818l0.856-3.102
		c0.781,0.917,1.505,1.613,2.167,2.117c0.662,0.497,1.401,0.859,2.233,1.092c1.406,0.39,2.231,0.14,2.479-0.744
		c0.081-0.304,0.024-0.627-0.19-0.971c-0.204-0.345-0.795-0.861-1.766-1.54c-0.975-0.679-1.711-1.267-2.255-1.776
		c-0.543-0.504-0.951-1.121-1.243-1.858c-0.285-0.74-0.302-1.58-0.034-2.539c0.34-1.231,1.114-2.1,2.32-2.581
		c1.198-0.48,2.638-0.497,4.302-0.039C137.618,4.552,139.139,5.376,140.64,6.583"/>
	<path fill="#FFFFFF" d="M153.978,22.168l-1.294,2.988c-2.105,0.162-4.099-0.158-5.974-0.973c-2.428-1.064-4.067-2.57-4.927-4.539
		c-0.854-1.97-0.854-3.933,0-5.9c0.849-1.967,2.33-3.308,4.442-4.016c2.122-0.713,4.396-0.536,6.849,0.527
		c1.952,0.843,3.433,1.976,4.434,3.356l-1.316,3.044c-1.256-1.647-2.625-2.801-4.109-3.446c-1.46-0.634-2.817-0.757-4.074-0.379
		c-1.267,0.379-2.163,1.177-2.689,2.389c-0.526,1.21-0.502,2.411,0.064,3.596c0.563,1.188,1.556,2.092,2.988,2.708
		c0.699,0.306,1.419,0.509,2.159,0.599C151.261,22.224,152.413,22.236,153.978,22.168"/>
	<polygon fill="#FFFFFF" points="174.895,23.022 166.779,35.535 163.662,33.523 166.946,28.458 160.701,24.409 157.425,29.481 
		154.301,27.453 162.416,14.939 165.54,16.957 162.277,21.976 168.518,26.022 171.778,20.998 	"/>
	<path fill="#FFFFFF" d="M185.054,31.553c1.857,1.74,2.836,3.706,2.943,5.901c0.095,2.19-0.55,4.039-1.941,5.525
		c-1.409,1.504-3.217,2.268-5.416,2.285c-2.197,0.029-4.211-0.825-6.037-2.53c-1.852-1.731-2.836-3.689-2.961-5.874
		c-0.126-2.19,0.516-4.041,1.935-5.562c1.392-1.477,3.192-2.258,5.389-2.292C181.161,28.964,183.193,29.82,185.054,31.553
		 M176.718,40.465c1.029,0.968,2.146,1.443,3.346,1.414c1.199-0.028,2.265-0.526,3.191-1.528c0.935-0.996,1.368-2.088,1.314-3.288
		c-0.058-1.194-0.602-2.28-1.637-3.243c-1.029-0.968-2.156-1.436-3.355-1.419c-1.202,0.017-2.265,0.519-3.198,1.527
		c-0.934,0.985-1.364,2.082-1.308,3.282C175.132,38.417,175.684,39.503,176.718,40.465"/>
	<path fill="#FFFFFF" d="M199.146,47.363c1.518,2.038,2.123,4.155,1.822,6.338c-0.295,2.168-1.256,3.866-2.898,5.077
		c-1.664,1.229-3.576,1.653-5.739,1.273c-2.173-0.373-3.993-1.567-5.483-3.579c-1.505-2.034-2.133-4.139-1.854-6.312
		c0.265-2.168,1.239-3.878,2.907-5.118c1.643-1.21,3.548-1.639,5.721-1.29C195.784,44.109,197.628,45.314,199.146,47.363
		 M189.333,54.625c0.839,1.137,1.852,1.805,3.032,1.997c1.189,0.193,2.326-0.119,3.419-0.922c1.104-0.815,1.732-1.817,1.892-3.005
		c0.153-1.189-0.193-2.355-1.031-3.481c-0.836-1.143-1.854-1.812-3.039-1.998c-1.183-0.209-2.32,0.097-3.423,0.911
		c-1.095,0.804-1.723,1.805-1.878,3C188.151,52.326,188.494,53.499,189.333,54.625"/>
	<polygon fill="#FFFFFF" points="200.685,73.998 198.254,75.253 193.025,65.151 206.271,58.292 207.982,61.591 197.16,67.194 	"/>
</g>
<polygon points="61.76,217.132 59.135,220.732 58.477,220.607 56.972,213.958 58.578,214.257 59.376,217.878 61.563,214.824 
	62.785,215.056 63.706,218.699 65.76,215.617 67.363,215.921 63.549,221.568 62.904,221.445 "/>
<polygon points="71.176,223.078 70.758,224.126 66.524,222.462 68.782,216.712 72.966,218.355 72.548,219.414 69.808,218.333 
	69.332,219.539 71.953,220.567 71.532,221.621 68.914,220.596 68.371,221.971 "/>
<polygon points="79.135,226.289 78.749,227.353 74.316,225.769 76.396,219.957 77.846,220.472 76.15,225.225 "/>
<polygon points="84.731,227.671 84.466,228.767 80.038,227.708 81.479,221.701 85.845,222.748 85.587,223.85 82.711,223.155 
	82.405,224.421 85.146,225.08 84.884,226.175 82.145,225.519 81.794,226.962 "/>
<path d="M90.419,223.392l1.959,6.475l-1.637-0.209l-0.356-1.271l-2.751-0.342l-0.61,1.147l-1.613-0.196l3.233-5.824L90.419,223.392z
	 M90.069,227.255l-0.693-2.506l-1.205,2.27L90.069,227.255z"/>
<path d="M93.669,223.703l2.753,0.086c0.602,0.025,1.084,0.209,1.444,0.565c0.363,0.354,0.533,0.78,0.523,1.272
	c-0.024,0.679-0.389,1.17-1.111,1.478c0.306,0.151,0.588,0.543,0.849,1.167c0.263,0.623,0.517,1.223,0.757,1.775l-1.69-0.045
	c-0.095-0.215-0.254-0.605-0.485-1.188c-0.234-0.583-0.438-0.951-0.618-1.116c-0.163-0.169-0.362-0.256-0.554-0.265l-0.448-0.009
	l-0.085,2.504l-1.527-0.051L93.669,223.703z M95.166,224.878l-0.037,1.41l0.802,0.023c0.268,0.01,0.476-0.041,0.635-0.165
	c0.152-0.119,0.23-0.288,0.238-0.515c0.023-0.465-0.272-0.703-0.859-0.729L95.166,224.878z"/>
<polygon points="105.879,223.75 105.96,229.929 104.656,229.939 101.207,226.029 101.251,229.985 99.712,230.005 99.631,223.828 
	101.041,223.813 104.393,227.544 104.341,223.766 "/>
<polygon points="114.042,223.813 114.042,224.942 111.812,224.955 111.835,230.001 110.293,230.001 110.273,224.958 
	108.032,224.964 108.032,223.837 "/>
<path d="M117.472,223.482c1.038-0.09,1.922,0.152,2.625,0.73c0.702,0.576,1.086,1.285,1.16,2.127
	c0.071,0.856-0.199,1.619-0.798,2.301c-0.607,0.683-1.426,1.066-2.458,1.152c-1.039,0.09-1.912-0.152-2.625-0.726
	c-0.713-0.565-1.097-1.272-1.171-2.13c-0.075-0.841,0.193-1.609,0.787-2.301C115.591,223.958,116.419,223.571,117.472,223.482
	 M117.9,228.513c0.574-0.053,1.032-0.262,1.357-0.635c0.33-0.379,0.466-0.849,0.415-1.404c-0.045-0.564-0.262-1.006-0.646-1.316
	c-0.38-0.318-0.865-0.447-1.45-0.402c-0.58,0.053-1.045,0.265-1.368,0.635c-0.333,0.374-0.469,0.85-0.424,1.408
	c0.057,0.566,0.271,1.002,0.651,1.318C116.827,228.428,117.306,228.559,117.9,228.513"/>
<path d="M128.416,222.035l0.282,1.176c-0.876-0.17-1.548-0.19-2.024-0.071c-0.271,0.062-0.475,0.155-0.617,0.288
	c-0.13,0.133-0.181,0.271-0.146,0.412c0.027,0.131,0.119,0.218,0.255,0.287c0.136,0.08,0.451,0.138,0.935,0.192
	c0.478,0.063,0.876,0.126,1.171,0.199c0.306,0.073,0.581,0.22,0.836,0.429c0.251,0.204,0.431,0.506,0.525,0.896
	c0.133,0.555,0.03,1.053-0.309,1.48c-0.34,0.434-0.863,0.73-1.552,0.9c-0.74,0.182-1.512,0.168-2.303-0.051l-0.318-1.297
	c0.471,0.172,0.879,0.277,1.219,0.336c0.325,0.037,0.679,0.021,1.018-0.062c0.589-0.141,0.837-0.402,0.75-0.77
	c-0.032-0.125-0.117-0.229-0.271-0.312c-0.139-0.085-0.458-0.152-0.944-0.204c-0.485-0.051-0.873-0.112-1.172-0.187
	c-0.298-0.067-0.566-0.215-0.82-0.42c-0.259-0.209-0.429-0.508-0.53-0.909c-0.126-0.515-0.015-0.979,0.323-1.397
	c0.339-0.425,0.852-0.72,1.555-0.883C126.915,221.908,127.635,221.898,128.416,222.035"/>
<polygon points="135.35,224.542 135.734,225.609 131.448,227.155 129.357,221.343 133.577,219.821 133.961,220.884 131.19,221.886 
	131.625,223.108 134.28,222.152 134.654,223.214 132.005,224.167 132.508,225.571 "/>
<path d="M134.579,219.292l2.53-1.092c0.554-0.231,1.062-0.266,1.545-0.097c0.486,0.17,0.822,0.476,1.019,0.929
	c0.266,0.623,0.143,1.229-0.381,1.805c0.348,0.014,0.761,0.246,1.271,0.709c0.496,0.445,0.978,0.871,1.437,1.277l-1.552,0.674
	c-0.17-0.156-0.486-0.436-0.944-0.859c-0.458-0.43-0.798-0.686-1.024-0.762c-0.226-0.074-0.436-0.074-0.622,0.006l-0.414,0.174
	l0.998,2.297l-1.409,0.618L134.579,219.292z M136.44,219.725l0.557,1.301l0.747-0.327c0.241-0.103,0.407-0.244,0.496-0.42
	c0.092-0.17,0.092-0.357,0-0.566c-0.18-0.428-0.547-0.529-1.087-0.287L136.44,219.725z"/>
<polygon points="145.71,215.192 144.861,222.009 144.229,222.208 139.496,217.138 141.099,216.64 143.72,219.515 144.138,215.684 
	"/>
<polygon points="152.382,219.328 152.535,220.443 148.019,221.039 147.228,214.914 151.676,214.332 151.822,215.453 
	148.891,215.833 149.061,217.117 151.856,216.757 152.005,217.878 149.207,218.246 149.394,219.712 "/>
<path fill="#FFFFFF" d="M78.592,111.201v-2.805c-0.023-6.419-0.014-12.844-0.102-19.261c-0.017-1.589,0.656-2.637,1.919-3.439
	c1.426-0.918,3.005-1.444,4.611-1.881c2.003-0.555,4.023-0.945,6.078-1.176c1.198-0.136,2.403-0.262,3.609-0.391
	c0.058-0.006,0.115,0,0.187,0c0,0.588,0.007,1.165,0,1.751c-0.021,3.648-0.052,7.304-0.071,10.966
	c-0.03,3.684-0.058,7.382-0.082,11.075c-0.01,1.074-0.01,2.156-0.02,3.237c0,0.418-0.023,0.447-0.432,0.374
	c-1.11-0.216-2.207-0.442-3.316-0.64c-1.971-0.328-3.95-0.47-5.953-0.323c-1.45,0.107-2.842,0.374-4.17,0.963
	C80.035,110.018,79.305,110.5,78.592,111.201"/>
<path fill="#FFFFFF" d="M77.251,111.325c-1.049-1.041-2.224-1.64-3.515-2.025c-1.008-0.306-2.062-0.428-3.106-0.459
	c-2.903-0.073-5.712,0.425-8.472,1.274c-0.102,0.034-0.201,0.056-0.296,0.079c-0.024,0-0.044-0.012-0.119-0.033V82.429
	c0.398,0.034,0.825,0.045,1.24,0.091c1.663,0.238,3.32,0.442,4.957,0.756c2.384,0.438,4.729,1.032,6.849,2.254
	c0.689,0.405,1.318,0.88,1.8,1.528c0.395,0.522,0.598,1.099,0.598,1.763c0,5.555,0,11.115,0.007,16.672
	c0,1.791,0.034,3.586,0.058,5.381V111.325z"/>
<path fill="#FFFFFF" d="M60.664,83.811v27.572c1.002-0.283,1.956-0.567,2.924-0.81c1.823-0.47,3.685-0.738,5.565-0.769
	c2.091-0.029,4.143,0.26,5.997,1.318c0.509,0.3,0.964,0.708,1.45,1.059c0.129,0.082,0.295,0.163,0.45,0.17
	c0.489,0.017,0.976,0.01,1.457-0.012c0.122-0.005,0.275-0.063,0.356-0.141c1.233-1.195,2.744-1.806,4.391-2.139
	c1.755-0.369,3.531-0.373,5.308-0.219c1.688,0.134,3.341,0.411,4.98,0.813c0.722,0.18,1.438,0.362,2.185,0.554V83.719
	c0.679,0.037,1.323,0.037,1.959,0.102c0.407,0.051,0.447,0.436,0.491,0.764c0.024,0.182,0.008,0.372,0.008,0.543v26.15
	c0,0.625-0.2,1.18-0.642,1.633c-0.315,0.328-0.707,0.498-1.175,0.498c-5.056-0.022-10.116-0.046-15.169-0.068
	c-0.288-0.012-0.485,0.073-0.672,0.293c-1.052,1.247-2.424,1.366-3.901,1.022c-0.655-0.149-1.124-0.607-1.562-1.078
	c-0.157-0.181-0.323-0.237-0.562-0.237c-2.613,0.017-5.229,0.022-7.843,0.034c-2.14,0.012-4.289,0.022-6.438,0.034
	c-1.168,0-2.004-0.827-2.004-2.016c-0.014-3.251-0.014-6.512-0.014-9.772c0-5.581,0-11.161,0.014-16.736
	c0-0.208,0.027-0.419,0.078-0.606c0.059-0.265,0.238-0.458,0.521-0.463C59.411,83.794,60.004,83.811,60.664,83.811"/>
<path fill="#FFFFFF" d="M148.45,93.153h-13.888l-4.289-13.209l-4.292,13.209h-13.889l11.239,8.155l-4.288,13.209l11.229-8.16
	l11.239,8.16l-4.303-13.209L148.45,93.153z M114.188,93.804l16.085,4.845l-3.817-4.856l3.817-11.73v16.586l16.082-4.845h0.081
	l-9.983,7.261l3.807,11.744l-0.011-0.012l-9.976-14.148l-6.194,2.399l-9.969-7.244H114.188z M130.273,98.773v6.779l-9.99,7.257
	l0.007-0.029L130.273,98.773z"/>
</svg>
